<?xml version="1.0" standalone="no"?><!DOCTYPE svg PUBLIC "-//W3C//DTD SVG 1.1//EN" "http://www.w3.org/Graphics/SVG/1.1/DTD/svg11.dtd"><svg t="1692970856267" class="icon" viewBox="0 0 1024 1024" version="1.1" xmlns="http://www.w3.org/2000/svg" p-id="9955" xmlns:xlink="http://www.w3.org/1999/xlink" width="128" height="128"><path d="M232.820091 636.075515h108.569575v62.039758H232.820091zM93.228636 636.075515h108.569576v62.039758H93.228636zM77.724696 698.121273h558.371819v310.208788H77.724696z" fill="#297FA9" p-id="9956"></path><path d="M77.724696 698.121273H449.959242v310.208788H77.724696z" fill="#86CBED" p-id="9957"></path><path d="M232.820091 15.677939h108.569575v62.039757H232.820091zM93.228636 15.677939h108.569576v62.039757H93.228636zM512.005 15.677939h108.569576v62.039757h-108.569576zM372.401545 15.677939h108.569576v62.039757h-108.569576zM77.724696 77.723696h558.371819v310.208789H77.724696z" fill="#297FA9" p-id="9958"></path><path d="M77.724696 77.723696H449.959242v310.208789H77.724696z" fill="#86CBED" p-id="9959"></path><path d="M822.193788 325.886727h108.569576v62.039758h-108.569576zM682.610334 325.886727h108.569575v62.039758h-108.569575z" fill="#FAD2E3" p-id="9960"></path><path d="M387.913485 387.912485h558.371819v310.208788H387.913485z" fill="#F5A5C7" p-id="9961"></path><path d="M387.913485 387.912485h372.234546v310.208788H387.913485z" fill="#FAD2E3" p-id="9962"></path><path d="M961.957242 372.240546H651.756454V62.039758H62.040758V403.598423h310.200788v278.842911H62.040758v341.558666h589.717696V713.795212h310.200788V372.240546h-0.002z m-868.558607 0V93.397635h527.003942v278.842911H93.398635z m527.001942 620.397577H93.398635V713.795212h527.003942v278.842911h-0.002z m310.198788-310.200789H403.599423V403.596423h527.001942V682.437334h-0.002z" fill="#1D1D1B" p-id="9963"></path><path d="M201.968211 667.097394H170.610334v-15.34194H124.418514v15.34194H93.060636v-46.697817h108.907575zM341.557666 667.097394H310.199788v-15.34194h-46.191819v15.34194h-31.357878v-46.697817h108.907575zM791.347909 356.898606h-31.357878v-15.33994h-46.193819v15.33994H682.438334v-46.697818h108.909575zM930.937364 356.898606h-31.357878v-15.33994h-46.19182v15.33994h-31.357877v-46.697818h108.907575z" fill="#1D1D1B" p-id="9964"></path><path d="M124.260515 930.604365h46.529818v31.357877H124.260515zM201.796212 930.604365h108.569576v31.357877h-108.569576zM465.637181 496.488061h-31.355877v-62.207757H511.999v31.355877h-46.361819zM434.281304 527.515939h31.357877v31.019879h-31.357877z" fill="#FFFFFF" p-id="9965"></path><path d="M341.557666 46.697818H310.199788v-15.33994h-46.191819v15.33994h-31.357878V0h108.907575zM202.024211 46.697818H170.666333v-15.33994H124.472514v15.33994H93.116636V0h108.907575zM621.226573 46.697818h-31.355877v-15.33994h-46.19382v15.33994H512.318999V0h108.907574zM481.693118 46.697818h-31.357877v-15.33994h-46.19382v15.33994h-31.357877V0h108.909574z" fill="#1D1D1B" p-id="9966"></path><path d="M124.260515 310.208788h232.651091v31.357878H124.260515z" fill="#FFFFFF" p-id="9967"></path></svg>